<svg xmlns="http://www.w3.org/2000/svg" viewBox="0 0 158 170.04"><defs><style>.cls-1{fill:#348ba7;}.cls-2{fill:none;stroke:#2d3047;stroke-linecap:round;stroke-miterlimit:10;stroke-width:1.5px;}</style></defs><title>10d</title><g id="Layer_2" data-name="Layer 2"><g id="Layer_1-2" data-name="Layer 1"><g id="Group_2" data-name="Group 2"><path id="Rectangle_22" data-name="Rectangle 22" class="cls-1" d="M28,44H129a22,22,0,0,1,22,22h0a22,22,0,0,1-22,22H28A22,22,0,0,1,6,66H6A22,22,0,0,1,28,44Z"/><circle id="Ellipse_1" data-name="Ellipse 1" class="cls-1" cx="29.5" cy="58.5" r="29.5"/><ellipse id="Ellipse_4" data-name="Ellipse 4" class="cls-1" cx="108.5" cy="40" rx="29.5" ry="29"/><ellipse id="Ellipse_2" data-name="Ellipse 2" class="cls-1" cx="128.5" cy="61.5" rx="29.5" ry="25.5"/><circle id="Ellipse_3" data-name="Ellipse 3" class="cls-1" cx="63.5" cy="38.5" r="38.5"/></g><line class="cls-2" x1="39.2" y1="93.9" x2="16.27" y2="138.06"/><line class="cls-2" x1="57.03" y1="93.44" x2="43.33" y2="119.83"/><line class="cls-2" x1="72.34" y1="99.56" x2="43.81" y2="154.5"/><line class="cls-2" x1="89.55" y1="91.75" x2="69.61" y2="130.16"/><line class="cls-2" x1="99.81" y1="97.92" x2="62.75" y2="169.29"/><line class="cls-2" x1="115.58" y1="92.38" x2="92.61" y2="136.62"/></g></g></svg>