<svg xmlns="http://www.w3.org/2000/svg" viewBox="0 0 180.42 110.75"><defs><style>.cls-1{fill:#2d3047;}.cls-2{fill:#348ba7;}</style></defs><title>04d</title><g id="Layer_2" data-name="Layer 2"><g id="Layer_1-2" data-name="Layer 1"><g id="Group_2" data-name="Group 2"><path id="Rectangle_22" data-name="Rectangle 22" class="cls-1" d="M28,44H129a22,22,0,0,1,22,22h0a22,22,0,0,1-22,22H28A22,22,0,0,1,6,66H6A22,22,0,0,1,28,44Z"/><circle id="Ellipse_1" data-name="Ellipse 1" class="cls-1" cx="29.5" cy="58.5" r="29.5"/><ellipse id="Ellipse_4" data-name="Ellipse 4" class="cls-1" cx="108.5" cy="40" rx="29.5" ry="29"/><ellipse id="Ellipse_2" data-name="Ellipse 2" class="cls-1" cx="128.5" cy="61.5" rx="29.5" ry="25.5"/><circle id="Ellipse_3" data-name="Ellipse 3" class="cls-1" cx="63.5" cy="38.5" r="38.5"/></g><g id="Group_2-2" data-name="Group 2"><path id="Rectangle_22-2" data-name="Rectangle 22" class="cls-2" d="M50.42,66.75h101a22,22,0,0,1,22,22h0a22,22,0,0,1-22,22h-101a22,22,0,0,1-22-22h0A22,22,0,0,1,50.42,66.75Z"/><circle id="Ellipse_1-2" data-name="Ellipse 1" class="cls-2" cx="51.92" cy="81.25" r="29.5"/><ellipse id="Ellipse_4-2" data-name="Ellipse 4" class="cls-2" cx="130.92" cy="62.75" rx="29.5" ry="29"/><ellipse id="Ellipse_2-2" data-name="Ellipse 2" class="cls-2" cx="150.92" cy="84.25" rx="29.5" ry="25.5"/><circle id="Ellipse_3-2" data-name="Ellipse 3" class="cls-2" cx="85.92" cy="61.25" r="38.5"/></g></g></g></svg>