<svg xmlns="http://www.w3.org/2000/svg" viewBox="0 0 158 110.5"><defs><style>.cls-1{fill:#d9cfbc;}.cls-2{fill:#2d3047;}</style></defs><title>night cloudy</title><g id="Layer_2" data-name="Layer 2"><g id="Layer_1-2" data-name="Layer 1"><path class="cls-1" d="M107.88,0c-1,0-2,.05-3,.12a35.11,35.11,0,1,1-30.61,63A40.5,40.5,0,1,0,107.88,0Z"/><g id="Group_2" data-name="Group 2"><path id="Rectangle_22" data-name="Rectangle 22" class="cls-2" d="M28,66.5H129a22,22,0,0,1,22,22h0a22,22,0,0,1-22,22H28a22,22,0,0,1-22-22H6A22,22,0,0,1,28,66.5Z"/><circle id="Ellipse_1" data-name="Ellipse 1" class="cls-2" cx="29.5" cy="81" r="29.5"/><ellipse id="Ellipse_4" data-name="Ellipse 4" class="cls-2" cx="108.5" cy="62.5" rx="29.5" ry="29"/><ellipse id="Ellipse_2" data-name="Ellipse 2" class="cls-2" cx="128.5" cy="84" rx="29.5" ry="25.5"/><circle id="Ellipse_3" data-name="Ellipse 3" class="cls-2" cx="63.5" cy="61" r="38.5"/></g></g></g></svg>