<svg xmlns="http://www.w3.org/2000/svg" viewBox="0 0 60.51 60.44"><defs><style>.cls-1{fill:none;stroke:#348ba7;stroke-linecap:round;stroke-miterlimit:10;stroke-width:4px;}</style></defs><title>snow</title><g id="Layer_2" data-name="Layer 2"><g id="Layer_1-2" data-name="Layer 1"><line class="cls-1" x1="30.1" y1="5.91" x2="30.1" y2="54.91"/><line class="cls-1" x1="5.6" y1="30.41" x2="54.6" y2="30.41"/><line class="cls-1" x1="16.24" y1="16.55" x2="43.96" y2="44.27"/><line class="cls-1" x1="16.24" y1="44.27" x2="43.96" y2="16.55"/><line class="cls-1" x1="44.31" y1="10.8" x2="44.31" y2="16.33"/><line class="cls-1" x1="49.59" y1="16.33" x2="44.31" y2="16.33"/><line class="cls-1" x1="26.28" y1="2" x2="30.19" y2="5.91"/><line class="cls-1" x1="33.92" y1="2.18" x2="30.19" y2="5.91"/><line class="cls-1" x1="10.6" y1="16.31" x2="16.13" y2="16.31"/><line class="cls-1" x1="16.13" y1="11.03" x2="16.13" y2="16.31"/><line class="cls-1" x1="2" y1="34.23" x2="5.91" y2="30.32"/><line class="cls-1" x1="2.18" y1="26.59" x2="5.91" y2="30.32"/><line class="cls-1" x1="16" y1="49.91" x2="16" y2="44.38"/><line class="cls-1" x1="10.72" y1="44.38" x2="16" y2="44.38"/><line class="cls-1" x1="33.92" y1="58.44" x2="30.01" y2="54.53"/><line class="cls-1" x1="26.28" y1="58.26" x2="30.01" y2="54.53"/><line class="cls-1" x1="49.61" y1="44.51" x2="44.07" y2="44.51"/><line class="cls-1" x1="44.07" y1="49.79" x2="44.07" y2="44.51"/><line class="cls-1" x1="58.51" y1="26.59" x2="54.6" y2="30.5"/><line class="cls-1" x1="58.33" y1="34.23" x2="54.6" y2="30.5"/></g></g></svg>