<svg xmlns="http://www.w3.org/2000/svg" viewBox="0 0 158 141.79"><defs><style>.cls-1{fill:#348ba7;}.cls-2{fill:#e0c93a;}</style></defs><title>thunderstorm</title><g id="Layer_2" data-name="Layer 2"><g id="Layer_1-2" data-name="Layer 1"><g id="Group_2" data-name="Group 2"><path id="Rectangle_22" data-name="Rectangle 22" class="cls-1" d="M28,44H129a22,22,0,0,1,22,22h0a22,22,0,0,1-22,22H28A22,22,0,0,1,6,66H6A22,22,0,0,1,28,44Z"/><circle id="Ellipse_1" data-name="Ellipse 1" class="cls-1" cx="29.5" cy="58.5" r="29.5"/><ellipse id="Ellipse_4" data-name="Ellipse 4" class="cls-1" cx="108.5" cy="40" rx="29.5" ry="29"/><ellipse id="Ellipse_2" data-name="Ellipse 2" class="cls-1" cx="128.5" cy="61.5" rx="29.5" ry="25.5"/><circle id="Ellipse_3" data-name="Ellipse 3" class="cls-1" cx="63.5" cy="38.5" r="38.5"/></g><polygon class="cls-2" points="77.62 81.72 58.98 81.72 69.4 44.4 93.33 44.4 77.62 81.72"/><polygon class="cls-2" points="61.35 141.79 61.35 141.79 71.77 85.53 95.7 85.53 61.35 141.79"/><polygon class="cls-2" points="94.2 87.99 57.16 87.99 58.98 81.73 98 81.7 94.2 87.99"/></g></g></svg>