<svg xmlns="http://www.w3.org/2000/svg" viewBox="0 0 158.82 61.25"><defs><style>.cls-1{fill:#348ba7;}</style></defs><title>wind</title><g id="Layer_2" data-name="Layer 2"><g id="Layer_1-2" data-name="Layer 1"><path class="cls-1" d="M21.62,40.88a154.43,154.43,0,0,1,49.48-1c13.49,2,28.71,6.74,41.22-1.18,9.46-6,14.57-18,7.6-27.94C113.31,1.39,98.48-3.17,88.11,2.46c-5.34,2.89-9.22,8.83-8.44,15A12.49,12.49,0,0,0,92.08,28.42c4.82,0,4.83-7.48,0-7.5-3.94,0-5.79-3.83-4.52-7.29,1.34-3.66,5.14-5.55,8.83-6a20,20,0,0,1,15.36,5.05c11,10.43-2.91,22-13.75,22.84-6.83.53-13.59-1-20.28-2.14A172.74,172.74,0,0,0,59,31.16a164,164,0,0,0-39.38,2.49c-4.74.85-2.73,8.08,2,7.23Z"/><path class="cls-1" d="M4.67,61.13A216.31,216.31,0,0,1,65.4,55a260.81,260.81,0,0,1,31.14,3.56c9.44,1.54,19,3,28.6,1.95,15.07-1.62,31.45-10.48,33.54-27,1.61-12.66-11.23-26-24.14-23.07-4.71,1.06-2.71,8.29,2,7.23,5.77-1.3,11.81,4.08,14,9,2.79,6.38-1.29,13.69-5.88,18.07-12.07,11.53-31.16,9-46.09,6.54-32.19-5.26-64-5.24-95.86,2.58-4.68,1.15-2.7,8.38,2,7.23Z"/></g></g></svg>